<?xml version="1.0" encoding="utf-8"?>
<!-- Designed by Vexels.com - 2020 All Rights Reserved - https://vexels.com/terms-and-conditions/  -->
<svg version="1.1" id="Layer_1" xmlns="http://www.w3.org/2000/svg" xmlns:xlink="http://www.w3.org/1999/xlink" x="0px" y="0px"
	 viewBox="0 0 1200 1200" enable-background="new 0 0 1200 1200" xml:space="preserve">
<g>
	<path fill="#EB4D80" d="M396.08,291.64h369.677c9.28,0,16.809-7.529,16.809-16.809c0-9.28-7.529-16.809-16.809-16.809H396.08
		c-9.28,0-16.809,7.529-16.809,16.809C379.271,284.111,386.8,291.64,396.08,291.64z"/>
	<path fill="#EB4D80" d="M1121.984,1012.85H982.606V648.579c0-15.474-12.541-28.016-28.016-28.016
		c-15.474,0-28.016,12.541-28.016,28.016v364.271H490.984V648.579c0-15.474-12.541-28.016-28.016-28.016
		s-28.016,12.541-28.016,28.016v364.271H239.06V648.579c0-15.474-12.541-28.016-28.016-28.016s-28.016,12.541-28.016,28.016v364.271
		H96.038c-15.474,0-28.016,12.541-28.016,28.016s12.541,28.016,28.016,28.016h1025.947c15.474,0,28.016-12.541,28.016-28.016
		S1137.459,1012.85,1121.984,1012.85z"/>
	<path fill="#EB4D80" d="M668.085,941.508c4.334,0,8.667-1.663,11.951-4.99L833.4,781.457c6.533-6.599,6.468-17.247-0.131-23.77
		c-6.588-6.533-17.247-6.468-23.77,0.131L656.134,912.879c-6.533,6.599-6.468,17.247,0.131,23.77
		C659.538,939.888,663.817,941.508,668.085,941.508z"/>
	<path fill="#EB4D80" d="M781.385,653.635c6.533-6.599,6.468-17.236-0.131-23.77c-6.599-6.533-17.247-6.468-23.77,0.131
		L638.263,750.53c-6.533,6.599-6.468,17.236,0.131,23.77c3.272,3.239,7.551,4.859,11.819,4.859c4.334,0,8.667-1.663,11.95-4.99
		L781.385,653.635z"/>
	<path fill="#EB4D80" d="M147.298,560.056c46.248,4.717,92.529,3.447,126.957-29.449c19.841,22.675,52.42,39.529,111.166,39.529
		c45.175,0,76.069-22.38,95.144-43.468c20.749,20.41,54.937,41.816,106.985,41.816c50.636,0,82.876-20.093,102.444-40.119
		c19.184,19.885,50.374,39.835,98.274,39.835c45.219,0,78.805-18.856,100.911-42.647c36.486,38.828,85.142,38.204,106.274,37.964
		c57.29-0.711,84.354-26.845,96.972-48.634c44.3-76.54-18.495-221.817-78.991-330.214c-18.44-33.028-53.449-53.547-91.369-53.547
		h-698.6c-39.758,0-75.588,22.062-93.514,57.586C77.28,293.074,23.208,433.437,64.739,509.365
		C75.901,529.764,99.277,555.109,147.298,560.056z M179.965,213.951c8.35-16.536,25.017-26.801,43.501-26.801h698.6
		c17.63,0,33.893,9.51,42.451,24.82c72.206,129.409,102.641,234.72,79.418,274.839c-2.889,5.001-11.699,20.213-49.17,20.673
		c-37.646,0.449-63.692-6.818-79.987-44.42c-4.531-10.462-15.299-17.499-26.33-16.875c-11.381,0.252-21.493,7.376-25.553,18.024
		c-1.871,4.903-19.874,47.955-74.625,47.955c-53.088,0-70.401-38.817-72.086-42.943c-4.137-10.889-14.566-18.079-26.199-18.079
		c-0.077,0-0.153,0-0.23,0c-11.721,0.099-22.15,7.485-26.122,18.506c-0.153,0.427-16.131,42.801-76.08,42.801
		c-60.267,0-81.76-43.446-82.515-45.011c-4.52-10.024-14.522-16.372-25.51-16.405c-0.022,0-0.055,0-0.077,0
		c-10.955,0-20.957,6.49-25.521,16.459c-0.865,1.893-21.865,46.609-68.507,46.609c-65.345,0-74.461-23.901-82.504-44.989
		c-3.994-10.462-13.822-17.543-25.006-18.013c-0.394-0.011-0.788-0.022-1.182-0.022c-10.725,0-20.563,6.15-25.247,15.89
		c-14.719,30.642-33.225,44.07-98.449,37.34c-25.827-2.648-34.702-13.723-39.135-21.833
		C91.627,441.744,116.94,338.851,179.965,213.951z"/>
</g>
</svg>
